Coordinates
version=1
nRows=7
nColumns=40
inDegrees=yes

Units are S.I. units (second, meters, Newtons, ...)
If the header above contains a line with 'inDegrees', this indicates whether rotational values are in degrees (yes) or radians (no).

endheader
time	pelvis_tilt	pelvis_list	pelvis_rotation	pelvis_tx	pelvis_ty	pelvis_tz	hip_flexion_r	hip_adduction_r	hip_rotation_r	knee_angle_r	knee_angle_r_beta	ankle_angle_r	subtalar_angle_r	mtp_angle_r	hip_flexion_l	hip_adduction_l	hip_rotation_l	knee_angle_l	knee_angle_l_beta	ankle_angle_l	subtalar_angle_l	mtp_angle_l	lumbar_extension	lumbar_bending	lumbar_rotation	arm_flex_r	arm_add_r	arm_rot_r	elbow_flex_r	pro_sup_r	wrist_flex_r	wrist_dev_r	arm_flex_l	arm_add_l	arm_rot_l	elbow_flex_l	pro_sup_l	wrist_flex_l	wrist_dev_l
     14.59999999999999964473	      5.54773190141624006344	     -1.67537938180927437060	   -179.12137125930516390326	      0.27074145834146495782	      0.88941197379942049661	     -0.95385294519974450633	     20.30633861161045672361	    -30.01427250456470829931	    -29.91902662306015869831	     10.71369583407274106435	      0.18698926736176940677	    -22.16463171526368114428	      0.00000000000000000000	      0.00000000000000000000	     21.19521794626739108480	    -25.92782054680222358911	    -21.38044899802885723261	     13.26046995589528521009	      0.23143886109215999758	    -16.21559133376662842352	      0.00000000000000000000	      0.00000000000000000000	    -28.35489655041663326074	     -0.33421107611180894681	     -4.56708714632906964681	     26.23801653189489613283	    -12.77557267794292528151	     45.21294708266501771732	     10.51523779698143812311	     39.42574164501964872898	      0.00000000000000000000	      0.00000000000000000000	     33.65947218622889636208	    -19.58442484482136691781	     57.74184036238332140556	     21.15389338211432246339	     81.10612907660987502823	      0.00000000000000000000	      0.00000000000000000000
     14.60500000000000042633	      5.14102554461040028855	     -1.79812671280565972154	   -179.18996289050502923601	      0.26933240410551340105	      0.89008338934348496529	     -0.95374935325737320024	     19.78638373889301504960	    -30.09688426478020772947	    -29.75159514151076933786	     10.67047215163001361304	      0.18623487178830736011	    -21.93125483052133262163	      0.00000000000000000000	      0.00000000000000000000	     20.51520743508291744206	    -25.81403420895014377834	    -21.89206865817621761039	     13.17035530376955065890	      0.22986606370827661339	    -15.93681168131115555298	      0.00000000000000000000	      0.00000000000000000000	    -28.17190198560543024087	     -0.50510361890962685028	     -4.51815362388194063925	     25.71334113040877511480	    -12.93379599462661388998	     45.12284641682678909547	     10.73105265462694646317	     39.77181540320247421505	      0.00000000000000000000	      0.00000000000000000000	     33.26024832854827195661	    -19.65814778178285138210	     57.70827887279600076909	     21.39129627112008336098	     81.07056914179801765385	      0.00000000000000000000	      0.00000000000000000000
     14.60999999999999943157	      4.90335869193604523275	     -1.87950257024722677812	   -179.11232709791926254184	      0.26818564867830324561	      0.89045512635340562380	     -0.95334887889373087777	     19.38904726457078453450	    -30.21195656599786971697	    -29.82261416499525097379	     10.63513543255416315958	      0.18561812969358149061	    -21.86072692259303096307	      0.00000000000000000000	      0.00000000000000000000	     20.15753477960093675847	    -25.67528472941959094555	    -21.95952649939586365235	     13.11014731772851682479	      0.22881523611586579436	    -15.79220104987999739876	      0.00000000000000000000	      0.00000000000000000000	    -27.82039474437588566502	     -0.56944485121514942794	     -4.66819919961166363009	     25.36261005162290160797	    -13.03172994354523694938	     45.04225798643783207353	     10.85982955916577985533	     39.97732253672893421026	      0.00000000000000000000	      0.00000000000000000000	     32.85336567078991976132	    -19.71552444951741733803	     57.73438274576533757454	     21.47270271840935507157	     81.06163179706244648060	      0.00000000000000000000	      0.00000000000000000000
     14.61500000000000021316	      4.74324054720903642846	     -1.88211966871638103349	   -178.95560634747189965310	      0.26721793921966968677	      0.89062396770888418995	     -0.95284835150242974677	     19.05149701250361715665	    -30.28566383771462966479	    -29.92883986286761199835	     10.66104085329751782751	      0.18607026457966746591	    -21.80923554399114649982	      0.00000000000000000000	      0.00000000000000000000	     20.04019598720605443987	    -25.61914637338761835395	    -21.75380812396264218478	     13.18506974997755953893	      0.23012287924221394575	    -15.76743511857952562139	      0.00000000000000000000	      0.00000000000000000000	    -27.38560871288263243173	     -0.52434928894623300533	     -4.85212615038352268471	     25.11428140758214411221	    -13.13301711517549641428	     44.97142971489117968531	     10.89752425097580612601	     40.01102799915396701635	      0.00000000000000000000	      0.00000000000000000000	     32.50009442588881825031	    -19.72441107944830562815	     57.76948021030146662724	     21.45960324183716494417	     81.02882295551590630112	      0.00000000000000000000	      0.00000000000000000000
     14.61999999999999921840	      4.24196572134836991097	     -2.05593832595207759439	   -179.06813351409599022190	      0.26570416475078367791	      0.89146868714238369780	     -0.95285393556700226370	     18.45854538357396634751	    -30.42067874474757616099	    -29.80873044105585734087	     10.63421741470975767641	      0.18560210725960454847	    -21.58506994565787096008	      0.00000000000000000000	      0.00000000000000000000	     19.18161333780300026319	    -25.45327112785379952697	    -22.38596361478994012373	     13.01883533984040042242	      0.22722154145520989665	    -15.56852847170089759743	      0.00000000000000000000	      0.00000000000000000000	    -27.31355768214916679426	     -0.78461808720472092649	     -4.80001614482181793164	     24.58863278351747894135	    -13.25827279102392353138	     44.83459279264913988072	     11.24276818913233455532	     40.44905992398466310078	      0.00000000000000000000	      0.00000000000000000000	     32.08355762377738784608	    -19.83768653276533555641	     57.61346943292512179369	     21.78616703382851937931	     80.98954048292075924564	      0.00000000000000000000	      0.00000000000000000000
     14.62500000000000000000	      4.05298876647864414480	     -2.04291942396983738917	   -178.95447506279978711063	      0.26467155143293924491	      0.89155758905906856704	     -0.95236507441039675026	     18.11715406251828852646	    -30.47842145500333543851	    -29.88953657443559919216	     10.67650401428668338610	      0.18634014765169434891	    -21.52563764656072109460	      0.00000000000000000000	      0.00000000000000000000	     18.99347368895922727461	    -25.42646373077275612218	    -22.21437578433931392397	     13.07270760717165103415	      0.22816178989565480406	    -15.44837481402129419905	      0.00000000000000000000	      0.00000000000000000000	    -26.87511160130231147036	     -0.72509550756966889562	     -4.96675705842628989473	     24.29266993317080292059	    -13.34324533093660214433	     44.76057750005489310752	     11.28928377252249326546	     40.51065478040126066617	      0.00000000000000000000	      0.00000000000000000000	     31.67413254826479729331	    -19.84792328934788940842	     57.65096840769849961816	     21.77888634572068227158	     80.95055992178997428255	      0.00000000000000000000	      0.00000000000000000000
     14.63000000000000078160	      3.61315122656191167749	     -2.16505900715252908029	   -179.01499417616011555765	      0.26333376446577660968	      0.89229889234405446174	     -0.95234777650455515463	     17.53818649449831568177	    -30.56260936320514431941	    -29.81193518643927475864	     10.61006792637120632605	      0.18518061917542485983	    -21.34574850889773500739	      0.00000000000000000000	      0.00000000000000000000	     18.24054973873571228182	    -25.27163634668520231230	    -22.53900198899357221194	     12.84567686341063108557	      0.22419935591377343487	    -15.33553930338358561869	      0.00000000000000000000	      0.00000000000000000000	    -26.74019652808652125486	     -0.91793081235759499403	     -4.97513508308937613123	     24.86766849305433169093	    -13.27595931679232776901	     42.11463999790520773558	      8.49192535880140297877	     59.85574753088085486752	      0.00000000000000000000	      0.00000000000000000000	     31.25938958786611721052	    -19.98002328496598778429	     57.42765155329243498272	     22.07693740634267598466	     80.72923684105464303684	      0.00000000000000000000	      0.00000000000000000000
